<svg aria-hidden="true" style="width:0;height:0;position:absolute;overflow:hidden" xmlns="http://www.w3.org/2000/svg"><defs><symbol id="icon-amazon-logo" viewBox="0 0 32 32"><path fill="#f90" style="fill:var(--color1,#f90)" d="M19.851 18.717c-1.853 1.37-4.547 2.1-6.872 2.1-3.256 0-6.175-1.201-8.399-3.2-.168-.157-.022-.371.191-.247 2.392 1.392 5.345 2.223 8.399 2.223 2.055 0 4.323-.427 6.411-1.314.314-.123.573.213.269.438z"/><path fill="#f90" style="fill:var(--color1,#f90)" d="M20.626 17.83c-.236-.303-1.572-.146-2.167-.067-.18.022-.213-.135-.045-.247 1.067-.752 2.807-.528 3.009-.281s-.056 1.999-1.055 2.829c-.157.123-.303.056-.236-.112.225-.561.73-1.808.494-2.122z"/><path style="fill:var(--color2,#000)" d="M18.493 12.239c0 .101.09.18.191.18h1.695l-1.954 2.796c-.123.18-.123.382-.123.494v.741c0 .112.123.225.236.168 1.1-.595 2.436-.539 3.436-.011.123.067.236-.056.236-.168v-.775c-.011-.101-.045-.213-.168-.281-.561-.314-1.224-.404-1.853-.393l1.684-2.403c.157-.225.247-.359.247-.46v-.618c0-.101-.09-.18-.191-.18h-3.256c-.101 0-.18.067-.18.18v.73zM6.625 16.764h-.988a.204.204 0 0 1-.18-.168v-5.075c0-.101.09-.18.191-.18h.921c.101 0 .168.079.18.168v.662h.022c.236-.64.696-.943 1.302-.943.618 0 1.011.303 1.28.943.236-.64.786-.943 1.37-.943.415 0 .865.168 1.145.561.314.427.247 1.044.247 1.594v3.211c0 .101-.09.18-.191.18h-.977c-.101-.011-.18-.09-.18-.18v-2.695c0-.213.022-.752-.022-.954-.079-.337-.292-.438-.584-.438-.236 0-.494.157-.595.415s-.09.685-.09.977v2.695c0 .101-.09.18-.191.18h-.988c-.101-.011-.18-.09-.18-.18v-2.695c0-.561.09-1.403-.606-1.403-.707 0-.685.808-.685 1.403v2.695a.197.197 0 0 1-.202.168zm18.301-5.536c1.471 0 2.268 1.258 2.268 2.863 0 1.549-.876 2.785-2.268 2.785-1.437 0-2.223-1.258-2.223-2.829-.011-1.583.786-2.818 2.223-2.818zm0 1.044c-.73 0-.775.999-.775 1.617s-.011 1.942.764 1.942c.764 0 .808-1.067.808-1.718 0-.427-.022-.943-.146-1.347-.112-.359-.337-.494-.651-.494zm4.166 4.492h-.988c-.101-.011-.18-.09-.18-.18v-5.086a.194.194 0 0 1 .191-.168h.921c.09 0 .157.067.18.146v.775h.022c.281-.696.662-1.022 1.347-1.022.438 0 .876.157 1.157.595.258.404.258 1.089.258 1.583v3.2c-.011.09-.09.157-.191.157h-.988c-.09-.011-.168-.079-.18-.157v-2.762c0-.561.067-1.37-.618-1.37-.236 0-.46.157-.573.404-.135.314-.157.618-.157.966v2.74a.206.206 0 0 1-.202.18zm-13.193-2.426c0 .382.011.707-.18 1.055-.157.281-.404.449-.685.449-.382 0-.606-.292-.606-.719 0-.842.752-.999 1.471-.999zm.999 2.414a.203.203 0 0 1-.236.022c-.326-.269-.393-.404-.573-.662-.539.55-.932.719-1.628.719-.831 0-1.482-.517-1.482-1.538 0-.808.438-1.347 1.055-1.617.539-.236 1.291-.281 1.864-.348v-.123c0-.236.022-.517-.123-.719-.123-.18-.348-.258-.55-.258-.382 0-.719.191-.797.595-.022.09-.079.18-.168.18l-.954-.101c-.079-.022-.168-.079-.146-.202.225-1.168 1.269-1.516 2.212-1.516.483 0 1.112.123 1.493.494.483.449.438 1.055.438 1.707v1.538c0 .46.191.662.371.921.067.09.079.202 0 .258-.213.168-.573.483-.775.651zM2.931 14.338c0 .382.011.707-.18 1.055-.157.281-.404.449-.685.449-.382 0-.606-.292-.606-.719 0-.842.752-.999 1.471-.999zm.988 2.414a.203.203 0 0 1-.236.022c-.326-.269-.393-.404-.573-.662-.539.55-.932.719-1.628.719-.831 0-1.482-.517-1.482-1.538 0-.808.438-1.347 1.055-1.617.539-.236 1.291-.281 1.864-.348v-.123c0-.236.022-.517-.123-.719-.123-.18-.348-.258-.55-.258-.382 0-.719.191-.797.595-.022.09-.079.18-.168.18l-.954-.101c-.079-.022-.168-.079-.146-.202.225-1.168 1.269-1.516 2.212-1.516.483 0 1.112.123 1.493.494.483.449.438 1.055.438 1.707v1.538c0 .46.191.662.371.921.067.09.079.202 0 .258-.213.168-.573.483-.775.651z"/></symbol><symbol id="icon-arrow-left" viewBox="0 0 32 32"><path d="M24.214.468a1.7 1.7 0 0 0-2.343 0L8.17 13.69a3.12 3.12 0 0 0 0 4.523l13.8 13.319a1.7 1.7 0 0 0 2.326.016 1.562 1.562 0 0 0 .018-2.279l-12.63-12.187a1.559 1.559 0 0 1 0-2.262L24.213 2.729a1.558 1.558 0 0 0 0-2.261z"/></symbol><symbol id="icon-arrow-right" viewBox="0 0 32 32"><path d="M7.785 31.532a1.7 1.7 0 0 0 2.343 0L23.829 18.31a3.12 3.12 0 0 0 0-4.523L10.028.468A1.7 1.7 0 0 0 7.702.452a1.562 1.562 0 0 0-.018 2.279l12.631 12.187a1.56 1.56 0 0 1 0 2.263L7.785 29.272a1.558 1.558 0 0 0 0 2.261z"/></symbol><symbol id="icon-arrow-sign" viewBox="0 0 32 32"><path d="M28.435 16c0-.335-.134-.643-.402-.897L19.167 6.25c-.295-.295-.589-.402-.911-.402-.656 0-1.165.482-1.165 1.152 0 .321.107.629.321.844l3 3.054 4.513 4.112-3.241-.201H4.742c-.683 0-1.179.495-1.179 1.192s.496 1.192 1.179 1.192h16.942l3.254-.201-4.527 4.112-3 3.054c-.214.201-.321.522-.321.844 0 .67.509 1.152 1.165 1.152.321 0 .603-.12.871-.375l8.906-8.88c.268-.254.402-.563.402-.897z"/></symbol><symbol id="icon-arrow-up" viewBox="0 0 32 32"><path d="M.256 23.481a1.063 1.063 0 0 0 1.813.75l14.119-14.119 13.913 13.912c.413.413 1.087.413 1.5 0s.413-1.087 0-1.5L16.938 7.855a1.065 1.065 0 0 0-1.5 0L.569 22.724a1.051 1.051 0 0 0-.313.756z"/></symbol><symbol id="icon-arrow-user" viewBox="0 0 32 32"><path d="m20.641 17.64-5.053-6.733h-7.48c-1.28 0-1.92 1.547-1.013 2.453l6.907 6.907a2.84 2.84 0 0 0 4.013 0l2.627-2.627z"/><path d="M23.893 10.907h-8.307l5.053 6.733 4.28-4.28c.893-.907.253-2.453-1.027-2.453z"/></symbol><symbol id="icon-bookshelf" viewBox="0 0 178 32"><path d="M22.176 8.532c0-4.731-3.497-7.406-9.545-7.406H0v29.417h13.33c6.089 0 9.998-2.921 9.998-8.599 0-4.402-2.633-6.665-5.719-7.2v-.082c2.427-.823 4.567-2.51 4.567-6.13zm-17.28 4.773V5.282h7.858c2.921 0 4.526 1.44 4.526 4.032s-1.317 3.991-4.814 3.991h-7.57zm0 3.662h8.599c3.086 0 4.937 1.687 4.937 4.69 0 2.756-1.275 4.731-5.472 4.731H4.896v-9.422zM35.89 31.161c-6.583 0-10.574-4.567-10.574-11.108S29.307 8.944 35.89 8.944s10.574 4.567 10.574 11.109-3.991 11.108-10.574 11.108zm0-3.538c4.114 0 6.254-3.25 6.254-7.57 0-4.361-2.139-7.57-6.254-7.57s-6.254 3.209-6.254 7.57c0 4.32 2.139 7.57 6.254 7.57zM58.912 31.161c-6.583 0-10.574-4.567-10.574-11.108S52.329 8.944 58.912 8.944s10.574 4.567 10.574 11.109-3.991 11.108-10.574 11.108zm0-3.538c4.114 0 6.254-3.25 6.254-7.57 0-4.361-2.139-7.57-6.254-7.57s-6.254 3.209-6.254 7.57c0 4.32 2.139 7.57 6.254 7.57zM72.472 1.127v29.417h4.32v-7.611l2.921-2.756 6.624 10.368h5.184l-8.846-13.207 7.982-7.817H85.35l-8.558 8.434V1.128h-4.32zM101.935 17.831c-3.045-.699-5.39-.864-5.39-3.003 0-1.481 1.399-2.469 3.991-2.469 3.374 0 4.197 1.687 4.485 3.333h4.197c-.288-3.662-3.003-6.747-8.722-6.747-5.266 0-8.311 2.757-8.311 6.213 0 4.773 4.526 5.431 7.858 6.213 3.086.741 5.595.946 5.595 3.579 0 1.317-1.275 2.798-4.279 2.798-4.443 0-5.431-1.934-5.637-4.197h-4.197c.206 4.443 3.127 7.611 9.915 7.611 5.102 0 8.558-2.51 8.558-6.542 0-5.019-4.197-5.883-8.064-6.788zM124.123 8.944c-3.538 0-5.719 1.646-6.83 3.291h-.082V1.126h-4.32v29.417h4.32V17.748c0-3.127 2.263-5.143 5.431-5.143 3.003 0 4.197 1.81 4.197 4.649v13.289h4.361V16.02c0-4.814-3.086-7.077-7.077-7.077zM144.448 27.623c-3.826 0-6.089-2.921-6.089-6.459h16.128c0-7.488-3.333-12.219-10.121-12.219-6.336 0-10.327 4.279-10.327 11.109 0 6.583 3.991 11.108 10.533 11.108 5.39 0 8.517-3.045 9.586-7.035h-4.32c-.37 1.275-1.81 3.497-5.39 3.497zm-.082-15.264c3.497 0 5.801 2.345 5.801 5.595h-11.808c0-3.25 2.51-5.595 6.007-5.595zM157.531 1.127v29.417h4.361V1.127h-4.361zM176.003 4.665V1.127a15.12 15.12 0 0 0-2.88-.288c-3.456 0-5.349 1.563-5.349 6.007V9.52h-3.003v3.538h3.003v17.486h4.361V13.058h3.867V9.52h-3.867V7.216c0-2.386 1.07-2.674 3.867-2.551z"/></symbol><symbol id="icon-book-shop" viewBox="0 0 32 32"><path d="M.12 18.358v-.001l-.001-.004zM.627 19.566l-.007-.009.008.01zM.627 13.984l-.007-.009.008.009zM.12 12.776l-.001-.002-.001-.002.001.004z"/><path d="M32 12.793a1.238 1.238 0 0 0-.072-.411c.044-.121.067-.242.067-.36a1.071 1.071 0 0 0-.128-.508l-.003-.005a1.186 1.186 0 0 0-.091-.135V7.92c.142-.204.226-.448.227-.711 0-.509-.307-.965-.776-1.158l-11.585-4.84h-.034a2.276 2.276 0 0 0-.751-.137c-.25 0-.5.049-.741.132h-.03L1.062 8.073a1.414 1.414 0 0 0-.488.426 2.497 2.497 0 0 0-.364.81l-.001.004c-.108.4-.153.805-.181 1.148l-.001.003c-.026.345-.027.636-.029.756v.067c.001.419.024.963.119 1.487l.002.006c.05.263.121.531.242.791l.002.004v.001c.061.128.141.265.252.396l.002.003c.008.01.02.018.029.027-.023.027-.053.053-.072.081a2.471 2.471 0 0 0-.364.809l-.001.002v.001c-.108.4-.153.806-.181 1.149l-.001.003c-.026.345-.027.636-.029.756v.067c.001.419.024.963.12 1.488l.001.004c.05.264.121.532.242.792l.002.005c.061.127.141.264.252.396l.002.003c.02.024.05.046.073.07-.04.044-.085.087-.117.131a2.48 2.48 0 0 0-.364.809l-.002.007.001-.003c-.108.4-.153.806-.181 1.149l-.001.003c-.026.345-.027.636-.029.757v.065c.001.42.024.964.12 1.489l.001.004c.05.263.121.531.242.791l.002.005c.061.128.141.264.252.397l-.008-.009.011.013c.106.123.252.242.434.331l-.002.003.004.002.026.015 12.525 5.17a2.266 2.266 0 0 0 1.723.003l15.994-6.5c.184-.074.358-.195.492-.39l.001-.003.002-.002a1.056 1.056 0 0 0 .05-1.091l-.003-.005a1.186 1.186 0 0 0-.091-.135V19.18a1.22 1.22 0 0 0 .137-1.169 1.053 1.053 0 0 0-.043-.914l-.003-.005a1.186 1.186 0 0 0-.091-.135v-3.453a1.25 1.25 0 0 0 .227-.711zM13.517 29.321 1.616 24.409l-.045-.052a1.23 1.23 0 0 1-.123-.305c-.059-.205-.1-.471-.125-.74s-.033-.54-.033-.767v-.054a8.71 8.71 0 0 1 .081-1.16c.034-.238.087-.468.152-.631l.014-.03 11.98 4.86v3.791zm0-5.676L1.616 18.733l-.045-.052a1.236 1.236 0 0 1-.123-.304c-.059-.206-.1-.471-.125-.741s-.033-.54-.033-.767v-.054c.002-.176.008-.683.081-1.161a2.91 2.91 0 0 1 .152-.63l.014-.03 11.98 4.86v3.791zm0-9.064v3.482L1.616 13.151l-.045-.053a1.243 1.243 0 0 1-.123-.303c-.059-.205-.1-.471-.125-.741s-.033-.54-.033-.766v-.054c.002-.175.008-.683.081-1.161.034-.238.087-.468.152-.631l.014-.029 11.98 4.859v.309zm16.966 8.626-15.639 6.356c-.12.047-.245.072-.371.072-.045 0-.09-.007-.135-.014v-3.838a1.807 1.807 0 0 0 .868-.127l.015-.006 15.262-6.229v3.786zm0-5.697v.021l-15.639 6.356a.881.881 0 0 1-.506.059v-3.839a1.786 1.786 0 0 0 .868-.126l.015-.007 15.262-6.229v3.765zm0-5.676v.115l-15.639 6.355a.995.995 0 0 1-.371.072c-.045 0-.09-.007-.135-.013v-3.839a1.825 1.825 0 0 0 .868-.126l.015-.007 15.262-6.229v3.671z"/><path d="M.12 24.034v-.001l-.001-.003z"/></symbol><symbol id="icon-book-square" viewBox="0 0 32 32"><path d="M21.587 2.667H10.414c-4.853 0-7.747 2.893-7.747 7.747v11.16c0 4.867 2.893 7.76 7.747 7.76h11.16c4.853 0 7.747-2.893 7.747-7.747V10.414c.013-4.853-2.88-7.747-7.733-7.747zM15.333 23c0 .48-.48.8-.92.613-1.613-.693-3.72-1.333-5.187-1.52l-.253-.027c-.813-.107-1.48-.867-1.48-1.693V10.106c0-1.027.827-1.787 1.84-1.707 1.667.133 4.133.933 5.68 1.813.213.12.32.347.32.573v12.213zm9.174-2.64c0 .827-.667 1.587-1.48 1.693l-.28.027c-1.453.2-3.547.827-5.16 1.507a.66.66 0 0 1-.92-.613v-12.2c0-.24.12-.467.333-.587 1.547-.867 3.96-1.64 5.6-1.787h.053c1.027 0 1.853.827 1.853 1.853V20.36z"/></symbol><symbol id="icon-burger" viewBox="0 0 32 32"><path d="M4.571 8c0-.631.512-1.143 1.143-1.143h21.714a1.143 1.143 0 0 1 0 2.286H5.714A1.143 1.143 0 0 1 4.571 8zM4.571 16c0-.631.512-1.143 1.143-1.143h12.571a1.143 1.143 0 0 1 0 2.286H5.714A1.143 1.143 0 0 1 4.571 16zM5.714 22.857a1.143 1.143 0 0 0 0 2.286h19.429a1.143 1.143 0 0 0 0-2.286H5.714z"/></symbol><symbol id="icon-close" viewBox="0 0 32 32"><path d="M6.1 6.1c.362-.362.862-.586 1.414-.586s1.052.224 1.414.586L16 13.172 23.072 6.1a2 2 0 0 1 2.827 2.829l.001-.001L18.828 16l7.072 7.072a2 2 0 0 1-2.829 2.827l.001.001L16 18.828 8.928 25.9a2 2 0 0 1-2.827-2.829l-.001.001L13.172 16 6.1 8.928c-.362-.362-.586-.862-.586-1.414S5.738 6.462 6.1 6.1z"/></symbol><symbol id="icon-lock" viewBox="0 0 32 32"><path d="M22.667 13.667h-.333v-3a6.33 6.33 0 0 0-6.333-6.333 6.33 6.33 0 0 0-6.333 6.333v3h-.333a3.667 3.667 0 0 0-3.667 3.667v6.667a3.667 3.667 0 0 0 3.667 3.667h13.333a3.667 3.667 0 0 0 3.667-3.667v-6.667a3.667 3.667 0 0 0-3.667-3.667zm-11-3A4.337 4.337 0 0 1 16 6.334a4.337 4.337 0 0 1 4.333 4.333v3h-8.667v-3zM24.333 24a1.665 1.665 0 0 1-1.667 1.667H9.333A1.667 1.667 0 0 1 7.667 24v-6.667a1.663 1.663 0 0 1 1.666-1.667h13.333a1.665 1.665 0 0 1 1.667 1.667V24z"/></symbol><symbol id="icon-logo-icon" viewBox="0 0 32 32"><path fill="#f6f6f6" style="fill:var(--color4,#f6f6f6)" d="m0 0 16.343 16.171L32 32V0H0z"/><path fill="#f6f6f6" style="fill:var(--color4,#f6f6f6)" d="M4.457 4.229 16.4 16.058l11.257 11.486h-23.2V4.23z"/><path fill="#4f2ee8" style="fill:var(--color5,#4f2ee8)" d="M27.733 27.618 15.79 15.789 4.533 4.303h23.2v23.314z"/><path fill="#4f2ee8" style="fill:var(--color5,#4f2ee8)" d="m9.257 9.029 13.6 13.6h-13.6v-13.6z"/><path fill="#f6f6f6" style="fill:var(--color4,#f6f6f6)" d="m9.257 9.029 13.6 13.6v-13.6h-13.6z"/></symbol><symbol id="icon-Logotype" viewBox="0 0 32 32"><path fill="#4f2ee8" style="fill:var(--color5,#4f2ee8)" d="M31.229 9.194a15.221 15.221 0 0 0-2.138-.91v17.947A14.622 14.622 0 0 0 24 25.306c-2.764 0-5.498.806-8 2.357V9.612c-2.356-1.387-5.076-2.208-8-2.208-2.604 0-5.062.656-7.229 1.79-.48.239-.771.761-.771 1.313v18.021c0 .865.684 1.477 1.455 1.477.233 0 .465-.06.698-.179 1.76-.94 3.738-1.537 5.847-1.537 3.011 0 5.789 1.223 8 2.984 2.211-1.76 4.989-2.984 8-2.984 2.109 0 4.087.597 5.847 1.552.233.119.465.179.698.179.756 0 1.455-.612 1.455-1.477V10.507c0-.552-.291-1.074-.771-1.313zM13.091 26.23c-1.658-.612-3.36-.925-5.091-.925s-3.433.313-5.091.925V11.446a12.672 12.672 0 0 1 10.182.015V26.23zM26.182 2.182l-7.273 7.459v14.172l7.273-6.713V2.182z"/></symbol><symbol id="icon-mail" viewBox="0 0 32 32"><path d="M30.64 5.672a4.637 4.637 0 0 0-3.283-1.36H4.644A4.643 4.643 0 0 0 .001 8.955v14.09a4.644 4.644 0 0 0 4.643 4.643h22.713a4.631 4.631 0 0 0 3.283-1.36A4.637 4.637 0 0 0 32 23.045V8.956a4.637 4.637 0 0 0-1.36-3.283zM4.643 6.69h22.713c.544 0 1.029.196 1.42.513L16 16.842 3.224 7.203a2.235 2.235 0 0 1 1.42-.513zM2.378 23.045V8.956c.001-.364.093-.7.243-1.003l8.863 8.125-8.887 7.926a2.249 2.249 0 0 1-.219-.958zm24.979 2.265H4.644c-.513 0-.974-.173-1.352-.457l9.414-7.614 1.426 1.357a2.762 2.762 0 0 0 3.738 0l1.426-1.357 9.413 7.614c-.378.284-.84.457-1.352.457zm2.265-2.265a2.264 2.264 0 0 1-.219.958l-8.887-7.926 8.863-8.125c.151.303.243.639.244 1.003v14.089z"/></symbol><symbol id="icon-trash" viewBox="0 0 32 32"><path d="M25.16 8h1.343l-1.317 21.353a1.403 1.403 0 0 1-1.399 1.313H8.211a1.402 1.402 0 0 1-1.397-1.308v-.005L5.498 8h1.337l1.309 21.271a.067.067 0 0 0 .067.063h15.577zM12.667 25.333a.667.667 0 0 0 .667-.667V11.333a.667.667 0 1 0-1.334 0v13.333c0 .368.298.667.667.667zm6.666 0a.667.667 0 0 0 .667-.667V11.333a.667.667 0 1 0-1.334 0v13.333c0 .368.298.667.667.667zM6.752 6.667H4V5.334h6.667v-1a1.668 1.668 0 0 1 1.667-1.667h7.333a1.67 1.67 0 0 1 1.667 1.667v1h6.667v1.333H6.753zM12 5.333h8v-1A.333.333 0 0 0 19.667 4h-7.333a.333.333 0 0 0-.333.333z"/></symbol><symbol id="icon-user" viewBox="0 0 32 32"><path d="M4 28q0 .832.576 1.44t1.44.576h20q.8 0 1.408-.576T28 28q0-1.44-.672-2.912t-1.76-2.624-2.496-2.144-2.88-1.504q1.76-1.088 2.784-2.912T24 12v-1.984q0-3.328-2.336-5.664T16 2.016t-5.664 2.336T8 10.016V12q0 2.112 1.024 3.904t2.784 2.912q-1.504.544-2.88 1.504t-2.496 2.144-1.76 2.624T4 28z"/></symbol><symbol id="icon-shop-list" viewBox="0 0 32 32"><path d="M11.577 7.686a5.332 5.332 0 0 1 9.755 2.981v3.297a.667.667 0 1 0 1.334 0v-.465a1.334 1.334 0 1 1-1.996 1.157.667.667 0 1 0-1.334 0 2.668 2.668 0 1 0 3.331-2.583v-1.406h4.667c.369 0 .667.298.667.667v14.667a.666.666 0 0 1-.667.667H4.667A.666.666 0 0 1 4 26.001V11.334c0-.369.298-.667.667-.667h4.667v3.336a.667.667 0 1 0 1.334 0V13.5a1.333 1.333 0 1 1-1.997 1.157.667.667 0 1 0-1.334 0 2.668 2.668 0 1 0 3.331-2.583v-1.406h8.621a.667.667 0 1 0 0-1.334H4.668c-1.106 0-2 .894-2 2v14.667c0 1.106.894 2 2 2h22.667c1.106 0 2-.894 2-2V11.334c0-1.106-.894-2-2-2h-4.8a6.668 6.668 0 0 0-12.06-2.394.667.667 0 0 0 1.105.747z"/></symbol><symbol id="icon-trident" viewBox="0 0 19 32"><path fill="#ffff" d="M9.632.08a4.753 4.753 0 0 0-1.194 3.154c.044 2.656.369 5.309.398 7.96.059 2.476-.683 4.8-1.586 7.069-.301.626-.626 1.239-.951 1.854l-.955-.193a1.593 1.593 0 0 1 .305-3.154l.349.037-.778-6.496A9.941 9.941 0 0 0 .086 2.463v23.061H5.41a8.745 8.745 0 0 0 3.259 5.333c.397.274.731.635.97 1.057a3.2 3.2 0 0 1 .97-1.057 8.753 8.753 0 0 0 3.259-5.333h5.324V2.463c-.416.228-.817.488-1.194.771a9.935 9.935 0 0 0-3.94 7.077l-.778 6.496.349-.037a1.592 1.592 0 0 1 .305 3.154l-.955.193a49.795 49.795 0 0 1-.951-1.854c-.903-2.267-1.645-4.591-1.586-7.069.029-2.659.354-5.309.398-7.96A4.76 4.76 0 0 0 9.646.08zm-7.96 5.707a8.294 8.294 0 0 1 1.926 4.373l.637 5.357a3.193 3.193 0 0 0-1.667 2.053h-.902V5.789zm15.92 0v11.781h-.902a3.192 3.192 0 0 0-1.667-2.053l.637-5.357a8.336 8.336 0 0 1 1.926-4.373zm-7.96 10.77a18.18 18.18 0 0 0 1.747 3.963 3.57 3.57 0 0 0-1.747 1.175 3.594 3.594 0 0 0-1.747-1.176 18.167 18.167 0 0 0 1.747-3.962zm-7.96 2.606h.902a3.196 3.196 0 0 0 2.229 2.27l.765.174a8.724 8.724 0 0 0-.317 2.332H1.669v-4.776zm15.021 0h.902v4.776h-3.582c0-.807-.112-1.59-.317-2.332l.765-.174a3.185 3.185 0 0 0 2.229-2.27zm-9.569 2.81c.966.136 1.71.963 1.71 1.965h-1.99c0-.682.101-1.34.28-1.965zm5.013 0c.179.625.28 1.282.28 1.965h-1.99c0-1.004.744-1.829 1.71-1.965zm-5.111 3.559h1.809v3.351a7.22 7.22 0 0 1-1.809-3.351zm3.402 0h1.809a7.158 7.158 0 0 1-1.809 3.351v-3.351z"/></symbol></defs></svg>