<!-- Generated by IcoMoon.io -->
<svg version="1.1" xmlns="http://www.w3.org/2000/svg" width="56" height="32" viewBox="0 0 56 32">
<title>save-ua-btn-start1</title>
<path fill="#4f2ee8" d="M30.603 10.866c-0.341-0.344-0.746-0.616-1.193-0.803s-0.926-0.282-1.41-0.282-0.963 0.096-1.41 0.282c-0.447 0.186-0.852 0.459-1.193 0.803l-16.793 16.83c-0.341 0.344-0.746 0.616-1.194 0.803s-0.926 0.282-1.41 0.282-0.963-0.096-1.41-0.282c-0.447-0.186-0.852-0.459-1.193-0.803-0.683-0.687-1.066-1.616-1.066-2.585s0.384-1.898 1.066-2.585l16.83-16.83c2.063-2.060 4.858-3.217 7.773-3.217s5.711 1.157 7.773 3.217l16.83 16.83c0.677 0.683 1.059 1.605 1.063 2.567 0.003 0.483-0.090 0.961-0.272 1.408s-0.451 0.853-0.791 1.196c-0.341 0.344-0.746 0.616-1.193 0.803s-0.926 0.282-1.41 0.282c-0.484 0-0.963-0.096-1.41-0.282s-0.852-0.459-1.193-0.803l-16.793-16.83z"></path>
</svg>
