<svg width="14" height="8" viewBox="0 0 14 8" fill="none" xmlns="http://www.w3.org/2000/svg">
<path d="M6.34914 5.2835C6.43435 5.36942 6.53574 5.43762 6.64744 5.48415C6.75915 5.53069 6.87896 5.55465 6.99997 5.55465C7.12098 5.55465 7.2408 5.53069 7.3525 5.48415C7.46421 5.43762 7.56559 5.36942 7.65081 5.2835L11.8491 1.076C11.9344 0.990084 12.0357 0.921889 12.1475 0.875351C12.2592 0.828813 12.379 0.804853 12.5 0.804853C12.621 0.804853 12.7408 0.828813 12.8525 0.875351C12.9642 0.921889 13.0656 0.990084 13.1508 1.076C13.3215 1.24775 13.4174 1.48008 13.4174 1.72225C13.4174 1.96442 13.3215 2.19675 13.1508 2.3685L8.94331 6.576C8.42768 7.09099 7.72873 7.38025 6.99997 7.38025C6.27122 7.38025 5.57226 7.09099 5.05664 6.576L0.849132 2.3685C0.679782 2.19776 0.58431 1.96731 0.583297 1.72684C0.5826 1.6062 0.605722 1.4866 0.65134 1.37492C0.696958 1.26324 0.764174 1.16166 0.849132 1.076C0.934347 0.990084 1.03573 0.921889 1.14744 0.875351C1.25914 0.828813 1.37895 0.804853 1.49996 0.804853C1.62098 0.804853 1.74079 0.828813 1.85249 0.875351C1.9642 0.921889 2.06558 0.990084 2.1508 1.076L6.34914 5.2835Z" fill="#4F2EE8"/>
</svg>
