<svg aria-hidden="true" style="position: absolute; width: 0; height: 0; overflow: hidden;" version="1.1" xmlns="http://www.w3.org/2000/svg" xmlns:xlink="http://www.w3.org/1999/xlink">
<defs>
<symbol id="icon-amazon-logo" viewBox="0 0 32 32">
<path fill="#f90" style="fill: var(--color1, #f90)" d="M19.851 18.717c-1.853 1.37-4.547 2.1-6.872 2.1-3.256 0-6.175-1.201-8.399-3.2-0.168-0.157-0.022-0.371 0.191-0.247 2.392 1.392 5.345 2.223 8.399 2.223 2.055 0 4.323-0.427 6.411-1.314 0.314-0.123 0.573 0.213 0.269 0.438z"></path>
<path fill="#f90" style="fill: var(--color1, #f90)" d="M20.626 17.83c-0.236-0.303-1.572-0.146-2.167-0.067-0.18 0.022-0.213-0.135-0.045-0.247 1.067-0.752 2.807-0.528 3.009-0.281s-0.056 1.999-1.055 2.829c-0.157 0.123-0.303 0.056-0.236-0.112 0.225-0.561 0.73-1.808 0.494-2.122z"></path>
<path fill="#000" style="fill: var(--color2, #000)" d="M18.493 12.239c0 0.101 0.090 0.18 0.191 0.18h1.695l-1.954 2.796c-0.123 0.18-0.123 0.382-0.123 0.494v0.741c0 0.112 0.123 0.225 0.236 0.168 1.1-0.595 2.436-0.539 3.436-0.011 0.123 0.067 0.236-0.056 0.236-0.168v-0.775c-0.011-0.101-0.045-0.213-0.168-0.281-0.561-0.314-1.224-0.404-1.853-0.393l1.684-2.403c0.157-0.225 0.247-0.359 0.247-0.46v-0.618c0-0.101-0.090-0.18-0.191-0.18h-3.256c-0.101 0-0.18 0.067-0.18 0.18v0.73zM6.625 16.764h-0.988c-0.090-0.011-0.168-0.079-0.18-0.168v-5.075c0-0.101 0.090-0.18 0.191-0.18h0.921c0.101 0 0.168 0.079 0.18 0.168v0.662h0.022c0.236-0.64 0.696-0.943 1.302-0.943 0.618 0 1.011 0.303 1.28 0.943 0.236-0.64 0.786-0.943 1.37-0.943 0.415 0 0.865 0.168 1.145 0.561 0.314 0.427 0.247 1.044 0.247 1.594v3.211c0 0.101-0.090 0.18-0.191 0.18h-0.977c-0.101-0.011-0.18-0.090-0.18-0.18v-2.695c0-0.213 0.022-0.752-0.022-0.954-0.079-0.337-0.292-0.438-0.584-0.438-0.236 0-0.494 0.157-0.595 0.415s-0.090 0.685-0.090 0.977v2.695c0 0.101-0.090 0.18-0.191 0.18h-0.988c-0.101-0.011-0.18-0.090-0.18-0.18v-2.695c0-0.561 0.090-1.403-0.606-1.403-0.707 0-0.685 0.808-0.685 1.403v2.695c-0.011 0.090-0.090 0.168-0.202 0.168zM24.926 11.228c1.471 0 2.268 1.258 2.268 2.863 0 1.549-0.876 2.785-2.268 2.785-1.437 0-2.223-1.258-2.223-2.829-0.011-1.583 0.786-2.818 2.223-2.818zM24.926 12.272c-0.73 0-0.775 0.999-0.775 1.617s-0.011 1.942 0.764 1.942c0.764 0 0.808-1.067 0.808-1.718 0-0.427-0.022-0.943-0.146-1.347-0.112-0.359-0.337-0.494-0.651-0.494zM29.092 16.764h-0.988c-0.101-0.011-0.18-0.090-0.18-0.18v-5.086c0.011-0.090 0.090-0.168 0.191-0.168h0.921c0.090 0 0.157 0.067 0.18 0.146v0.775h0.022c0.281-0.696 0.662-1.022 1.347-1.022 0.438 0 0.876 0.157 1.157 0.595 0.258 0.404 0.258 1.089 0.258 1.583v3.2c-0.011 0.090-0.090 0.157-0.191 0.157h-0.988c-0.090-0.011-0.168-0.079-0.18-0.157v-2.762c0-0.561 0.067-1.37-0.618-1.37-0.236 0-0.46 0.157-0.573 0.404-0.135 0.314-0.157 0.618-0.157 0.966v2.74c-0.011 0.101-0.101 0.18-0.202 0.18zM15.899 14.338c0 0.382 0.011 0.707-0.18 1.055-0.157 0.281-0.404 0.449-0.685 0.449-0.382 0-0.606-0.292-0.606-0.719 0-0.842 0.752-0.999 1.471-0.999zM16.898 16.752c-0.067 0.056-0.157 0.067-0.236 0.022-0.326-0.269-0.393-0.404-0.573-0.662-0.539 0.55-0.932 0.719-1.628 0.719-0.831 0-1.482-0.517-1.482-1.538 0-0.808 0.438-1.347 1.055-1.617 0.539-0.236 1.291-0.281 1.864-0.348v-0.123c0-0.236 0.022-0.517-0.123-0.719-0.123-0.18-0.348-0.258-0.55-0.258-0.382 0-0.719 0.191-0.797 0.595-0.022 0.090-0.079 0.18-0.168 0.18l-0.954-0.101c-0.079-0.022-0.168-0.079-0.146-0.202 0.225-1.168 1.269-1.516 2.212-1.516 0.483 0 1.112 0.123 1.493 0.494 0.483 0.449 0.438 1.055 0.438 1.707v1.538c0 0.46 0.191 0.662 0.371 0.921 0.067 0.090 0.079 0.202 0 0.258-0.213 0.168-0.573 0.483-0.775 0.651zM2.931 14.338c0 0.382 0.011 0.707-0.18 1.055-0.157 0.281-0.404 0.449-0.685 0.449-0.382 0-0.606-0.292-0.606-0.719 0-0.842 0.752-0.999 1.471-0.999zM3.919 16.752c-0.067 0.056-0.157 0.067-0.236 0.022-0.326-0.269-0.393-0.404-0.573-0.662-0.539 0.55-0.932 0.719-1.628 0.719-0.831 0-1.482-0.517-1.482-1.538 0-0.808 0.438-1.347 1.055-1.617 0.539-0.236 1.291-0.281 1.864-0.348v-0.123c0-0.236 0.022-0.517-0.123-0.719-0.123-0.18-0.348-0.258-0.55-0.258-0.382 0-0.719 0.191-0.797 0.595-0.022 0.090-0.079 0.18-0.168 0.18l-0.954-0.101c-0.079-0.022-0.168-0.079-0.146-0.202 0.225-1.168 1.269-1.516 2.212-1.516 0.483 0 1.112 0.123 1.493 0.494 0.483 0.449 0.438 1.055 0.438 1.707v1.538c0 0.46 0.191 0.662 0.371 0.921 0.067 0.090 0.079 0.202 0 0.258-0.213 0.168-0.573 0.483-0.775 0.651z"></path>
</symbol>
<symbol id="icon-arrow-left" viewBox="0 0 32 32">
<path d="M24.214 0.468v0c-0.648-0.624-1.697-0.624-2.343 0l-13.701 13.222c-1.294 1.249-1.294 3.275 0 4.523l13.8 13.319c0.641 0.617 1.677 0.625 2.326 0.016v0c0.664-0.622 0.671-1.647 0.018-2.279l-12.63-12.187c-0.648-0.625-0.648-1.637 0-2.262l12.529-12.091c0.648-0.624 0.648-1.636 0-2.261z"></path>
</symbol>
<symbol id="icon-arrow-right" viewBox="0 0 32 32">
<path d="M7.785 31.532v0c0.648 0.624 1.697 0.624 2.343 0l13.701-13.222c1.294-1.249 1.294-3.275 0-4.523l-13.801-13.319c-0.641-0.617-1.677-0.625-2.326-0.016v0c-0.663 0.622-0.671 1.647-0.018 2.279l12.631 12.187c0.648 0.625 0.648 1.637 0 2.263l-12.53 12.091c-0.648 0.624-0.648 1.637 0 2.261z"></path>
</symbol>
<symbol id="icon-arrow-sign" viewBox="0 0 32 32">
<path d="M28.435 16c0-0.335-0.134-0.643-0.402-0.897l-8.866-8.853c-0.295-0.295-0.589-0.402-0.911-0.402-0.656 0-1.165 0.482-1.165 1.152 0 0.321 0.107 0.629 0.321 0.844l3 3.054 4.513 4.112-3.241-0.201h-16.942c-0.683 0-1.179 0.495-1.179 1.192s0.496 1.192 1.179 1.192h16.942l3.254-0.201-4.527 4.112-3 3.054c-0.214 0.201-0.321 0.522-0.321 0.844 0 0.67 0.509 1.152 1.165 1.152 0.321 0 0.603-0.12 0.871-0.375l8.906-8.88c0.268-0.254 0.402-0.563 0.402-0.897z"></path>
</symbol>
<symbol id="icon-arrow-up" viewBox="0 0 32 32">
<path d="M0.256 23.481c0 0.269 0.106 0.544 0.313 0.75 0.412 0.413 1.087 0.413 1.5 0l14.119-14.119 13.913 13.912c0.413 0.413 1.087 0.413 1.5 0s0.413-1.087 0-1.5l-14.663-14.669c-0.413-0.412-1.088-0.412-1.5 0l-14.869 14.869c-0.213 0.212-0.313 0.481-0.313 0.756z"></path>
</symbol>
<symbol id="icon-arrow-user" viewBox="0 0 32 32">
<path  d="M20.641 17.64l-5.053-6.733h-7.48c-1.28 0-1.92 1.547-1.013 2.453l6.907 6.907c1.107 1.107 2.907 1.107 4.013 0l2.627-2.627z"></path>
<path  d="M23.893 10.907h-8.307l5.053 6.733 4.28-4.28c0.893-0.907 0.253-2.453-1.027-2.453z"></path>
</symbol>
<symbol id="icon-bookshelf" viewBox="0 0 178 32">
<path d="M22.176 8.532c0-4.731-3.497-7.406-9.545-7.406h-12.631v29.417h13.33c6.089 0 9.998-2.921 9.998-8.599 0-4.402-2.633-6.665-5.719-7.2v-0.082c2.427-0.823 4.567-2.51 4.567-6.13zM4.896 13.305v-8.023h7.858c2.921 0 4.526 1.44 4.526 4.032s-1.317 3.991-4.814 3.991h-7.57zM4.896 16.967h8.599c3.086 0 4.937 1.687 4.937 4.69 0 2.756-1.275 4.731-5.472 4.731h-8.064v-9.422z"></path>
<path d="M35.89 31.161c-6.583 0-10.574-4.567-10.574-11.108s3.991-11.109 10.574-11.109 10.574 4.567 10.574 11.109c0 6.542-3.991 11.108-10.574 11.108zM35.89 27.623c4.114 0 6.254-3.25 6.254-7.57 0-4.361-2.139-7.57-6.254-7.57s-6.254 3.209-6.254 7.57c0 4.32 2.139 7.57 6.254 7.57z"></path>
<path d="M58.912 31.161c-6.583 0-10.574-4.567-10.574-11.108s3.991-11.109 10.574-11.109 10.574 4.567 10.574 11.109c0 6.542-3.991 11.108-10.574 11.108zM58.912 27.623c4.114 0 6.254-3.25 6.254-7.57 0-4.361-2.139-7.57-6.254-7.57s-6.254 3.209-6.254 7.57c0 4.32 2.139 7.57 6.254 7.57z"></path>
<path d="M72.472 1.127v29.417h4.32v-7.611l2.921-2.756 6.624 10.368h5.184l-8.846-13.207 7.982-7.817h-5.307l-8.558 8.434v-16.827h-4.32z"></path>
<path d="M101.935 17.831c-3.045-0.699-5.39-0.864-5.39-3.003 0-1.481 1.399-2.469 3.991-2.469 3.374 0 4.197 1.687 4.485 3.333h4.197c-0.288-3.662-3.003-6.747-8.722-6.747-5.266 0-8.311 2.757-8.311 6.213 0 4.773 4.526 5.431 7.858 6.213 3.086 0.741 5.595 0.946 5.595 3.579 0 1.317-1.275 2.798-4.279 2.798-4.443 0-5.431-1.934-5.637-4.197h-4.197c0.206 4.443 3.127 7.611 9.915 7.611 5.102 0 8.558-2.51 8.558-6.542 0-5.019-4.197-5.883-8.064-6.788z"></path>
<path d="M124.123 8.944c-3.538 0-5.719 1.646-6.83 3.291h-0.082v-11.109h-4.32v29.417h4.32v-12.795c0-3.127 2.263-5.143 5.431-5.143 3.003 0 4.197 1.81 4.197 4.649v13.289h4.361v-14.523c0-4.814-3.086-7.077-7.077-7.077z"></path>
<path d="M144.448 27.623c-3.826 0-6.089-2.921-6.089-6.459h16.128c0-7.488-3.333-12.219-10.121-12.219-6.336 0-10.327 4.279-10.327 11.109 0 6.583 3.991 11.108 10.533 11.108 5.39 0 8.517-3.045 9.586-7.035h-4.32c-0.37 1.275-1.81 3.497-5.39 3.497zM144.366 12.359c3.497 0 5.801 2.345 5.801 5.595h-11.808c0-3.25 2.51-5.595 6.007-5.595z"></path>
<path d="M157.531 1.127v29.417h4.361v-29.417h-4.361z"></path>
<path d="M176.003 4.665v-3.538c-0.864-0.165-1.81-0.288-2.88-0.288-3.456 0-5.349 1.563-5.349 6.007v2.674h-3.003v3.538h3.003v17.486h4.361v-17.486h3.867v-3.538h-3.867v-2.304c0-2.386 1.070-2.674 3.867-2.551z"></path>
</symbol>
<symbol id="icon-book-shop" viewBox="0 0 32 32">
<path d="M0.12 18.358v-0.001l-0.001-0.004z"></path>
<path d="M0.627 19.566l-0.007-0.009c-0-0-0-0-0-0l0.008 0.010z"></path>
<path d="M0.627 13.984l-0.007-0.009c-0 0-0 0-0 0l0.008 0.009z"></path>
<path d="M0.12 12.776c0 0 0-0.002-0.001-0.002l-0.001-0.002 0.001 0.004z"></path>
<path d="M32 12.793c0.001-0.142-0.027-0.28-0.072-0.411 0.044-0.121 0.067-0.242 0.067-0.36 0.001-0.185-0.050-0.364-0.128-0.508l-0.003-0.005c-0.024-0.043-0.056-0.089-0.091-0.135v-3.454c0.142-0.204 0.226-0.448 0.227-0.711 0-0.509-0.307-0.965-0.776-1.158l-11.585-4.84h-0.034c-0.243-0.085-0.495-0.137-0.751-0.137-0.25 0-0.5 0.049-0.741 0.132h-0.030l-17.021 6.867c-0.217 0.114-0.377 0.272-0.488 0.426-0.193 0.269-0.292 0.552-0.364 0.81l-0.001 0.004c-0.108 0.4-0.153 0.805-0.181 1.148l-0.001 0.003c-0.026 0.345-0.027 0.636-0.029 0.756v0.067c0.001 0.419 0.024 0.963 0.119 1.487l0.002 0.006c0.050 0.263 0.121 0.531 0.242 0.791l0.002 0.004 0 0.001c0.061 0.128 0.141 0.265 0.252 0.396l0.002 0.003c0.008 0.010 0.020 0.018 0.029 0.027-0.023 0.027-0.053 0.053-0.072 0.081-0.194 0.268-0.292 0.552-0.364 0.809l-0.001 0.002v0.001c-0.108 0.4-0.153 0.806-0.181 1.149l-0.001 0.003c-0.026 0.345-0.027 0.636-0.029 0.756v0.067c0.001 0.419 0.024 0.963 0.12 1.488l0.001 0.004c0.050 0.264 0.121 0.532 0.242 0.792l0.002 0.005c0.061 0.127 0.141 0.264 0.252 0.396l0.002 0.003c0.020 0.024 0.050 0.046 0.073 0.070-0.040 0.044-0.085 0.087-0.117 0.131-0.194 0.269-0.292 0.552-0.364 0.809l-0.002 0.007 0.001-0.003c-0.108 0.4-0.153 0.806-0.181 1.149l-0.001 0.003c-0.026 0.345-0.027 0.636-0.029 0.757v0.065c0.001 0.42 0.024 0.964 0.12 1.489l0.001 0.004c0.050 0.263 0.121 0.531 0.242 0.791l0.002 0.005c0.061 0.128 0.141 0.264 0.252 0.397l-0.008-0.009 0.011 0.013c0.106 0.123 0.252 0.242 0.434 0.331l-0.002 0.003 0.004 0.002 0.026 0.015 12.525 5.17c0.277 0.113 0.571 0.171 0.867 0.171 0.29 0 0.582-0.056 0.856-0.168l15.994-6.5c0.184-0.074 0.358-0.195 0.492-0.39l0 0c0 0 0-0.002 0.001-0.003s0.001-0 0.002-0.002h-0c0.126-0.191 0.177-0.392 0.178-0.583 0.001-0.185-0.050-0.364-0.128-0.508l-0.003-0.005v0c-0.024-0.043-0.056-0.089-0.091-0.135v-3.454c0.142-0.204 0.226-0.449 0.227-0.712 0.001-0.159-0.033-0.313-0.090-0.457 0.057-0.136 0.085-0.274 0.085-0.406 0.001-0.185-0.050-0.363-0.128-0.508l-0.003-0.005c-0.024-0.043-0.056-0.089-0.091-0.135v-3.453c0.142-0.204 0.226-0.449 0.227-0.711zM13.517 29.321l-11.901-4.912-0.045-0.052c-0.037-0.058-0.085-0.168-0.123-0.305-0.059-0.205-0.1-0.471-0.125-0.74s-0.033-0.54-0.033-0.767v-0.054c0.002-0.175 0.008-0.683 0.081-1.16 0.034-0.238 0.087-0.468 0.152-0.631l0.014-0.030 11.98 4.86v3.791zM13.517 23.645l-11.901-4.912-0.045-0.052c-0.037-0.058-0.085-0.168-0.123-0.304-0.059-0.206-0.1-0.471-0.125-0.741s-0.033-0.54-0.033-0.767v-0.054c0.002-0.176 0.008-0.683 0.081-1.161 0.034-0.238 0.087-0.468 0.152-0.63l0.014-0.030 11.98 4.86v3.791zM13.517 14.581v3.482l-11.901-4.912-0.045-0.053c-0.037-0.058-0.085-0.168-0.123-0.303-0.059-0.205-0.1-0.471-0.125-0.741s-0.033-0.54-0.033-0.766v-0.054c0.002-0.175 0.008-0.683 0.081-1.161 0.034-0.238 0.087-0.468 0.152-0.631l0.014-0.029 11.98 4.859v0.309zM30.483 23.207l-15.639 6.356c-0.12 0.047-0.245 0.072-0.371 0.072-0.045 0-0.090-0.007-0.135-0.014v-3.838c0.059 0.007 0.12 0.010 0.178 0.010 0.235 0 0.47-0.046 0.69-0.137l0.015-0.006 15.262-6.229v3.786zM30.483 17.51v0.021l-15.639 6.356c-0.12 0.048-0.245 0.072-0.371 0.072-0.045 0-0.090-0.006-0.135-0.013v-3.839c0.059 0.006 0.12 0.010 0.178 0.010 0.235 0 0.47-0.046 0.69-0.136l0.015-0.007 15.262-6.229v3.765zM30.483 11.834v0.115l-15.639 6.355c-0.12 0.048-0.245 0.072-0.371 0.072-0.045 0-0.090-0.007-0.135-0.013v-3.839c0.059 0.007 0.12 0.010 0.178 0.010 0.235 0 0.47-0.046 0.69-0.136l0.015-0.007 15.262-6.229v3.671z"></path>
<path d="M0.12 24.034v-0.001l-0.001-0.003z"></path>
</symbol>
<symbol id="icon-book-square" viewBox="0 0 32 32">
<path d="M21.587 2.667h-11.173c-4.853 0-7.747 2.893-7.747 7.747v11.16c0 4.867 2.893 7.76 7.747 7.76h11.16c4.853 0 7.747-2.893 7.747-7.747v-11.173c0.013-4.853-2.88-7.747-7.733-7.747zM15.333 23c0 0.48-0.48 0.8-0.92 0.613-1.613-0.693-3.72-1.333-5.187-1.52l-0.253-0.027c-0.813-0.107-1.48-0.867-1.48-1.693v-10.267c0-1.027 0.827-1.787 1.84-1.707 1.667 0.133 4.133 0.933 5.68 1.813 0.213 0.12 0.32 0.347 0.32 0.573v12.213zM24.507 20.36c0 0.827-0.667 1.587-1.48 1.693l-0.28 0.027c-1.453 0.2-3.547 0.827-5.16 1.507-0.44 0.187-0.92-0.133-0.92-0.613v-12.2c0-0.24 0.12-0.467 0.333-0.587 1.547-0.867 3.96-1.64 5.6-1.787h0.053c1.027 0 1.853 0.827 1.853 1.853v10.107z"></path>
</symbol>
<symbol id="icon-burger" viewBox="0 0 32 32">
<path d="M4.571 8c0-0.631 0.512-1.143 1.143-1.143h21.714c0.631 0 1.143 0.512 1.143 1.143s-0.512 1.143-1.143 1.143h-21.714c-0.631 0-1.143-0.512-1.143-1.143z"></path>
<path d="M4.571 16c0-0.631 0.512-1.143 1.143-1.143l12.571 0c0.631 0 1.143 0.512 1.143 1.143s-0.512 1.143-1.143 1.143l-12.571-0c-0.631 0-1.143-0.512-1.143-1.143z"></path>
<path d="M5.714 22.857c-0.631 0-1.143 0.512-1.143 1.143s0.512 1.143 1.143 1.143h19.429c0.631 0 1.143-0.512 1.143-1.143s-0.512-1.143-1.143-1.143h-19.429z"></path>
</symbol>
<symbol id="icon-close" viewBox="0 0 32 32">
<path d="M6.1 6.1c0.362-0.362 0.862-0.586 1.414-0.586s1.052 0.224 1.414 0.586l7.072 7.072 7.072-7.072c0.359-0.347 0.849-0.561 1.389-0.561 1.105 0 2 0.895 2 2 0 0.54-0.214 1.030-0.562 1.39l0.001-0.001-7.072 7.072 7.072 7.072c0.347 0.359 0.561 0.849 0.561 1.389 0 1.105-0.895 2-2 2-0.54 0-1.030-0.214-1.39-0.562l0.001 0.001-7.072-7.072-7.072 7.072c-0.359 0.347-0.849 0.561-1.389 0.561-1.105 0-2-0.895-2-2 0-0.54 0.214-1.030 0.562-1.39l-0.001 0.001 7.072-7.072-7.072-7.072c-0.362-0.362-0.586-0.862-0.586-1.414s0.224-1.052 0.586-1.414v0z"></path>
</symbol>
<symbol id="icon-lock" viewBox="0 0 32 32">
<path d="M22.667 13.667h-0.333v-3c0-1.68-0.667-3.291-1.855-4.478s-2.799-1.855-4.478-1.855c-1.68 0-3.291 0.667-4.478 1.855s-1.855 2.799-1.855 4.478v3h-0.333c-0.972 0-1.905 0.386-2.593 1.074s-1.074 1.62-1.074 2.593v6.667c0 0.972 0.386 1.905 1.074 2.593s1.62 1.074 2.593 1.074h13.333c0.972 0 1.905-0.386 2.593-1.074s1.074-1.62 1.074-2.593v-6.667c0-0.972-0.386-1.905-1.074-2.593s-1.62-1.074-2.593-1.074zM11.667 10.667c0-1.149 0.457-2.251 1.269-3.064s1.915-1.269 3.064-1.269c1.149 0 2.251 0.457 3.064 1.269s1.269 1.915 1.269 3.064v3h-8.667v-3zM24.333 24c0 0.442-0.176 0.866-0.488 1.179s-0.737 0.488-1.179 0.488h-13.333c-0.442 0-0.866-0.176-1.178-0.488s-0.488-0.737-0.488-1.179v-6.667c0-0.442 0.176-0.866 0.488-1.179s0.736-0.488 1.178-0.488h13.333c0.442 0 0.866 0.176 1.179 0.488s0.488 0.737 0.488 1.179v6.667z"></path>
</symbol>
<symbol id="icon-logo-icon" viewBox="0 0 32 32">
<path fill="#f6f6f6" style="fill: var(--color4, #f6f6f6)" d="M0 0l16.343 16.171 15.657 15.829v-32h-32z"></path>
<path fill="#f6f6f6" style="fill: var(--color4, #f6f6f6)" d="M4.457 4.229l11.943 11.829 11.257 11.486h-23.2v-23.314z"></path>
<path fill="#4f2ee8" style="fill: var(--color5, #4f2ee8)" d="M27.733 27.618l-11.943-11.829-11.257-11.486h23.2v23.314z"></path>
<path fill="#4f2ee8" style="fill: var(--color5, #4f2ee8)" d="M9.257 9.029l13.6 13.6h-13.6v-13.6z"></path>
<path fill="#f6f6f6" style="fill: var(--color4, #f6f6f6)" d="M9.257 9.029l13.6 13.6v-13.6h-13.6z"></path>
</symbol>
<symbol id="icon-Logotype" viewBox="0 0 32 32">
<path fill="#4f2ee8" style="fill: var(--color5, #4f2ee8)" d="M31.229 9.194c-0.684-0.358-1.396-0.656-2.138-0.91v17.947c-1.658-0.612-3.36-0.925-5.091-0.925-2.764 0-5.498 0.806-8 2.357v-18.051c-2.356-1.387-5.076-2.208-8-2.208-2.604 0-5.062 0.656-7.229 1.79-0.48 0.239-0.771 0.761-0.771 1.313v18.021c0 0.865 0.684 1.477 1.455 1.477 0.233 0 0.465-0.060 0.698-0.179 1.76-0.94 3.738-1.537 5.847-1.537 3.011 0 5.789 1.223 8 2.984 2.211-1.76 4.989-2.984 8-2.984 2.109 0 4.087 0.597 5.847 1.552 0.233 0.119 0.465 0.179 0.698 0.179 0.756 0 1.455-0.612 1.455-1.477v-18.036c0-0.552-0.291-1.074-0.771-1.313zM13.091 26.23c-1.658-0.612-3.36-0.925-5.091-0.925s-3.433 0.313-5.091 0.925v-14.784c1.615-0.701 3.316-1.059 5.091-1.059 1.745 0 3.476 0.373 5.091 1.074v14.769zM26.182 2.182l-7.273 7.459v14.172l7.273-6.713v-14.918z"></path>
</symbol>
<symbol id="icon-mail" viewBox="0 0 32 32">
<path d="M30.64 5.672c-0.836-0.838-2.005-1.36-3.283-1.36h-22.713c-2.565 0.001-4.643 2.078-4.643 4.643v14.090c0.001 2.565 2.079 4.642 4.643 4.643h22.713c1.279 0 2.447-0.521 3.283-1.36 0.838-0.836 1.36-2.005 1.36-3.283v-14.089c0-1.278-0.522-2.447-1.36-3.283zM4.643 6.69h22.713c0.544 0 1.029 0.196 1.42 0.513l-12.776 9.639-12.776-9.639c0.391-0.317 0.876-0.513 1.42-0.513zM2.378 23.045v-14.089c0.001-0.364 0.093-0.7 0.243-1.003l8.863 8.125-8.887 7.926c-0.137-0.291-0.218-0.612-0.219-0.958zM27.357 25.31h-22.713c-0.513-0-0.974-0.173-1.352-0.457l9.414-7.614 1.426 1.357c1.057 0.971 2.681 0.971 3.738 0l1.426-1.357 9.413 7.614c-0.378 0.284-0.84 0.457-1.352 0.457zM29.622 23.045c-0.001 0.346-0.083 0.667-0.219 0.958l-8.887-7.926 8.863-8.125c0.151 0.303 0.243 0.639 0.244 1.003v14.089z"></path>
</symbol>
<symbol id="icon-trash" viewBox="0 0 32 32">
<path d="M25.16 8h1.343l-1.317 21.353c-0.048 0.735-0.656 1.313-1.399 1.313-0 0-0 0-0 0h-15.576c-0.742-0.001-1.348-0.578-1.397-1.308l-0-0.004v-0.001l-1.316-21.353h1.337l1.309 21.271c0.002 0.035 0.031 0.063 0.067 0.063 0 0 0 0 0 0v0h15.577zM12.667 25.333c0.368 0 0.667-0.298 0.667-0.667v0-13.333c0-0.368-0.298-0.667-0.667-0.667s-0.667 0.298-0.667 0.667v0 13.333c0 0.368 0.298 0.667 0.667 0.667v0zM19.333 25.333c0.368 0 0.667-0.298 0.667-0.667v0-13.333c0-0.368-0.298-0.667-0.667-0.667s-0.667 0.298-0.667 0.667v0 13.333c0 0.368 0.298 0.667 0.667 0.667v0zM6.752 6.667h-2.752v-1.333h6.667v-1c0.001-0.92 0.746-1.666 1.667-1.667h7.333c0.92 0.001 1.666 0.747 1.667 1.667v1h6.667v1.333h-21.248zM12 5.333h8v-1c0-0.184-0.149-0.333-0.333-0.333v0h-7.333c-0.184 0-0.333 0.149-0.333 0.333v0z"></path>
</symbol>
<symbol id="icon-user" viewBox="0 0 32 32">
<path d="M4 28q0 0.832 0.576 1.44t1.44 0.576h20q0.8 0 1.408-0.576t0.576-1.44q0-1.44-0.672-2.912t-1.76-2.624-2.496-2.144-2.88-1.504q1.76-1.088 2.784-2.912t1.024-3.904v-1.984q0-3.328-2.336-5.664t-5.664-2.336-5.664 2.336-2.336 5.664v1.984q0 2.112 1.024 3.904t2.784 2.912q-1.504 0.544-2.88 1.504t-2.496 2.144-1.76 2.624-0.672 2.912z"></path>
</symbol>
<symbol id="icon-shop-list" viewBox="0 0 32 32">
<path d="M11.577 7.686c0.987-1.46 2.628-2.352 4.422-2.352 2.946 0 5.333 2.387 5.333 5.333v3.297c0 0.368 0.298 0.667 0.667 0.667s0.667-0.298 0.667-0.667v-0.465c0.4 0.23 0.67 0.662 0.67 1.157 0 0.736-0.598 1.333-1.333 1.333s-1.333-0.598-1.333-1.333c0-0.368-0.298-0.667-0.667-0.667s-0.667 0.298-0.667 0.667c0 1.472 1.194 2.667 2.667 2.667s2.667-1.194 2.667-2.667c0-1.244-0.852-2.289-2.003-2.583v-1.406h4.667c0.369 0 0.667 0.298 0.667 0.667v14.667c0 0.369-0.298 0.667-0.667 0.667h-22.667c-0.369 0-0.667-0.298-0.667-0.667v-14.667c0-0.369 0.298-0.667 0.667-0.667h4.667v3.336c0 0.368 0.298 0.667 0.667 0.667s0.667-0.298 0.667-0.667v-0.503c0.4 0.23 0.669 0.662 0.669 1.157 0 0.736-0.598 1.333-1.333 1.333s-1.333-0.598-1.333-1.333c0-0.368-0.298-0.667-0.667-0.667s-0.667 0.298-0.667 0.667c0 1.472 1.194 2.667 2.667 2.667s2.667-1.194 2.667-2.667c0-1.244-0.851-2.288-2.003-2.583v-1.406h8.621c0.368 0 0.667-0.298 0.667-0.667s-0.298-0.667-0.667-0.667h-14.621c-1.106 0-2 0.894-2 2v14.667c0 1.106 0.894 2 2 2h22.667c1.106 0 2-0.894 2-2v-14.667c0-1.106-0.894-2-2-2h-4.8c-0.618-3.043-3.307-5.333-6.533-5.333-2.242 0-4.295 1.116-5.527 2.939-0.206 0.305-0.126 0.72 0.179 0.926s0.72 0.126 0.926-0.179z"></path>
</symbol>
<symbol id="icon-trident" viewBox="0 0 19 32">
<path fill="#ffff"  d="M9.632 0.080c-0.742 0.842-1.194 1.944-1.194 3.154 0.044 2.656 0.369 5.309 0.398 7.96 0.059 2.476-0.683 4.8-1.586 7.069-0.301 0.626-0.626 1.239-0.951 1.854l-0.955-0.193c-0.862-0.172-1.423-1.010-1.25-1.872 0.15-0.754 0.814-1.282 1.555-1.282l0.349 0.037-0.778-6.496c-0.254-2.89-1.746-5.429-3.94-7.077-0.377-0.283-0.778-0.543-1.194-0.771v23.061h5.324c0.398 2.157 1.587 4.044 3.259 5.333 0.397 0.274 0.731 0.635 0.97 1.057 0.239-0.422 0.572-0.783 0.97-1.057 1.672-1.293 2.861-3.175 3.259-5.333h5.324v-23.061c-0.416 0.228-0.817 0.488-1.194 0.771-2.197 1.65-3.686 4.187-3.94 7.077l-0.778 6.496 0.349-0.037c0.74 0.003 1.404 0.527 1.555 1.282 0.172 0.862-0.388 1.7-1.25 1.872l-0.955 0.193c-0.326-0.614-0.651-1.227-0.951-1.854-0.903-2.267-1.645-4.591-1.586-7.069 0.029-2.659 0.354-5.309 0.398-7.96 0-1.21-0.452-2.308-1.194-3.154zM1.672 5.787c1.030 1.209 1.722 2.714 1.926 4.373l0.637 5.357c-0.816 0.406-1.433 1.151-1.667 2.053h-0.902v-11.781zM17.592 5.787v11.781h-0.902c-0.232-0.901-0.851-1.646-1.667-2.053l0.637-5.357c0.206-1.657 0.898-3.163 1.926-4.373zM9.632 16.557c0.427 1.399 1.016 2.73 1.747 3.963-0.696 0.211-1.301 0.622-1.747 1.175-0.447-0.553-1.052-0.963-1.747-1.176 0.732-1.235 1.32-2.563 1.747-3.962zM1.672 19.163h0.902c0.284 1.099 1.142 1.967 2.229 2.27l0.765 0.174c-0.205 0.742-0.317 1.52-0.317 2.332h-3.582v-4.776zM16.693 19.163h0.902v4.776h-3.582c0-0.807-0.112-1.59-0.317-2.332l0.765-0.174c1.091-0.303 1.948-1.172 2.229-2.27zM7.124 21.973c0.966 0.136 1.71 0.963 1.71 1.965h-1.99c0-0.682 0.101-1.34 0.28-1.965zM12.137 21.973c0.179 0.625 0.28 1.282 0.28 1.965h-1.99c0-1.004 0.744-1.829 1.71-1.965zM7.026 25.532h1.809v3.351c-0.876-0.919-1.512-2.070-1.809-3.351zM10.428 25.532h1.809c-0.293 1.282-0.931 2.433-1.809 3.351v-3.351z"></path>
</symbol>
</defs>
</svg>
